# xmcd
#
# Track frame offsets: 
#        150
#        13618
#        25813
#        38571
#        51727
#        63449
#        75814
#        88087
#        100501
#        112472
#        123776
#        136056
#        147451
#        158842
#
# Disc length: 2266 seconds
#
# Revision: 0
# Processed by: cddbd v1.5.1PL0 Copyright (c) Steve Scherf et al.
# Submitted via: ExactAudioCopy v0.95a5
#
DISCID=b208d80e
DTITLE=Various Artist - Bluegrass - Volume 2
DYEAR=2004
DGENRE=Bluegrass
TTITLE0=The Stanley Brothers/I'm a Man of Constant Sorrow
TTITLE1=The Delmore Brothers/I'm Lonesome Without You
TTITLE2=The Coon Creek Girls/Banjo Pickin' Girl
TTITLE3=The Bailey Brothers/Alabama
TTITLE4=The Armstrong Twins/Cabin Home in Caroline
TTITLE5=Lester Flatt and Earl Scruggs/We'll Meet Again Sweetheart
TTITLE6=Molly O'Day/Poor Ellen Smith
TTITLE7=Bill Monroe/Uncle Penn
TTITLE8=Lester Flatt and Earl Scruggs/I'm Going to Make Heaven My Home
TTITLE9=The Coon Creek Girls/Little Birdie
TTITLE10=The Bailey Brothers/John Henry
TTITLE11=The Armstrong Twins/Three Miles South of Cash in Arkansas
TTITLE12=Bill Monroe/New Mule Skinner Blues
TTITLE13=Lester Flatt and Earl Scruggs/Farewell Blues
EXTD=
EXTT0=
EXTT1=
EXTT2=
EXTT3=
EXTT4=
EXTT5=
EXTT6=
EXTT7=
EXTT8=
EXTT9=
EXTT10=
EXTT11=
EXTT12=
EXTT13=
PLAYORDER=
